HIERARCHY
ROOT ui
{
	 OFFSET 0 0 0
	 CHANNELS 3 XPosition YPosition Z Position
	 EndSite
	 {
	 OFFSET 0 -1 0
	 }
}
ROOT li
{
	 OFFSET 0 0 0
	 CHANNELS 3 XPosition YPosition Z Position
	 EndSite
	 {
	 OFFSET 0 -1 0
	 }
}
ROOT ul
{
	 OFFSET 0 0 0
	 CHANNELS 3 XPosition YPosition Z Position
	 EndSite
	 {
	 OFFSET 0 -1 0
	 }
}
ROOT ll
{
	 OFFSET 0 0 0
	 CHANNELS 3 XPosition YPosition Z Position
	 EndSite
	 {
	 OFFSET 0 -1 0
	 }
}
ROOT tt
{
	 OFFSET 0 0 0
	 CHANNELS 3 XPosition YPosition Z Position
	 EndSite
	 {
	 OFFSET 0 -1 0
	 }
}
ROOT tb
{
	 OFFSET 0 0 0
	 CHANNELS 3 XPosition YPosition Z Position
	 EndSite
	 {
	 OFFSET 0 -1 0
	 }
}
ROOT td
{
	 OFFSET 0 0 0
	 CHANNELS 3 XPosition YPosition Z Position
	 EndSite
	 {
	 OFFSET 0 -1 0
	 }
}
ROOT v
{
	 OFFSET 0 0 0
	 CHANNELS 3 XPosition YPosition Z Position
	 EndSite
	 {
	 OFFSET 0 -1 0
	 }
}
ROOT bn
{
	 OFFSET 0 0 0
	 CHANNELS 3 XPosition YPosition Z Position
	 EndSite
	 {
	 OFFSET 0 -1 0
	 }
}
MOTION
Frames: 30
Frame Time: 0.002
-0.037938018798828126	-0.0026754350662231445	0		0.5925995483398437	-2.53988037109375	0		-1.0628358154296875	0.4272380065917969	0		-0.2808122863769531	-3.30348486328125	0		2.151048095703125	-0.7398402099609375	0		3.681917724609375	-0.03558499526977539	0		5.0207587890625	-0.05850999069213867	0		5.99528076171875	0.551178466796875	0		-0.3800821533203125	5.88890185546875	0		
0.035561752319335935	5.083919763565064E-4	0		0.5671041870117187	-2.53673876953125	0		-1.05733447265625	0.431073974609375	0		-0.306439697265625	-3.314345947265625	0		2.1573125	-0.7610001831054688	0		3.67832470703125	-0.041643150329589845	0		5.017146484375	-0.06656281280517579	0		5.99561181640625	0.551026611328125	0		-0.37865036010742187	5.887779296875	0		
0.04402293395996094	-0.0016884729862213135	0		0.6184867553710938	-2.5453544921875	0		-1.061802001953125	0.4360103759765625	0		-0.2750523376464844	-3.32176220703125	0		2.14868212890625	-0.772048095703125	0		3.6905439453125	-0.06890435028076172	0		5.02662646484375	-0.06680617523193359	0		5.995955078125	0.5507427978515625	0		-0.399067138671875	5.893865234375	0		
-0.032482017517089845	-7.078900188207626E-5	0		0.5889126586914063	-2.5462021484375	0		-1.0713018798828124	0.43700048828125	0		-0.2837386474609375	-3.3327958984375	0		2.1887412109375	-0.8145997314453125	0		3.67802490234375	-0.06897400665283203	0		5.01319482421875	-0.057891555786132816	0		5.99266455078125	0.5331129760742187	0		-0.36342840576171875	5.8984072265625	0		
-0.03201787567138672	-2.0207299292087554E-4	0		0.6092027587890625	-2.556545654296875	0		-1.07082470703125	0.43690023803710937	0		-0.28944174194335937	-3.339861083984375	0		2.173997314453125	-0.8336509399414063	0		3.669419677734375	-0.07612850189208985	0		5.01145361328125	-0.07915323638916015	0		5.985865234375	0.5327396850585937	0		-0.37887457275390624	5.88944140625	0		
-0.03561674499511719	-0.0032983620166778566	0		0.6013632202148438	-2.57362841796875	0		-1.0703765869140625	0.4368072509765625	0		-0.15345654296875	-3.372309814453125	0		2.16917919921875	-0.85582666015625	0		3.649750244140625	-0.08621968078613282	0		5.01188037109375	-0.0794946060180664	0		5.9754130859375	0.5167605590820312	0		-0.37820388793945314	5.8893203125	0		
-0.03120070266723633	-4.754399955272675E-4	0		0.6275872192382812	-2.577053466796875	0		-1.06592822265625	0.440683349609375	0		-0.27018841552734374	-3.36629541015625	0		2.1492978515625	-0.8788807983398438	0		3.6569365234375	-0.10661463165283203	0		5.0022734375	-0.07879407501220703	0		5.97416650390625	0.491798583984375	0		-0.3813765563964844	5.90323876953125	0		
-0.023789249420166015	0.006316571235656738	0		0.6038218383789062	-2.571996337890625	0		-1.0655582275390625	0.4406083984375	0		-0.15412745666503908	-3.374562744140625	0		2.1823876953125	-0.89947802734375	0		3.667429931640625	-0.09107965087890625	0		5.00072998046875	-0.06722340393066406	0		5.9900830078125	0.48534976196289065	0		-0.3796802978515625	5.90211181640625	0		
0.04643231964111328	-0.0025162060260772705	0		0.6488021240234375	-2.586625	0		-1.00517626953125	0.4449482116699219	0		-0.15228143310546874	-3.39671044921875	0		2.16843994140625	-0.9186326904296875	0		3.640520263671875	-0.11221049499511719	0		4.99391015625	-0.07964789581298828	0		5.9709951171875	0.47272113037109376	0		-0.4111247253417969	5.8853173828125	0		
-0.030281078338623046	-8.867769837379455E-4	0		0.6307805786132813	-2.595633544921875	0		-1.0099077758789063	0.440940673828125	0		-0.15632791137695312	-3.40179541015625	0		2.176279296875	-0.9550205688476563	0		3.6407841796875	-0.112636962890625	0		4.98925732421875	-0.07213212585449219	0		5.9760986328125	0.45077755737304687	0		-0.34227801513671874	5.89553125	0		
0.03897389984130859	-7.14801013469696E-4	0		0.6267642822265626	-2.599781494140625	0		-1.0936976318359375	0.4337425231933594	0		-0.15839389038085938	-3.403895751953125	0		2.174263427734375	-0.97332177734375	0		3.647810546875	-0.13415557861328126	0		4.9813583984375	-0.08661634826660156	0		5.966212890625	0.43086016845703123	0		-0.36046795654296876	5.90061865234375	0		
-0.02980380058288574	-0.0011442420482635498	0		0.6117132568359375	-2.603815185546875	0		-1.0043109741210938	0.4448072509765625	0		-0.147591796875	-3.415121337890625	0		2.16833154296875	-0.98058984375	0		3.639048095703125	-0.1325296173095703	0		4.985640625	-0.08124615478515625	0		5.96637646484375	0.4296781311035156	0		-0.37964227294921876	5.9057265625	0		
0.04244655227661133	0.001995918035507202	0		0.638642578125	-2.607273681640625	0		-1.0040548706054688	0.4447822570800781	0		-0.15960505676269532	-3.405106201171875	0		2.172192626953125	-1.0059611206054688	0		3.617187744140625	-0.13877656555175782	0		4.98092822265625	-0.07379875946044921	0		5.96652880859375	0.42846343994140623	0		-0.3637566223144531	5.915486328125	0		
-0.03433903884887695	0.003677794933319092	0		0.6325113525390625	-2.614387939453125	0		-1.0038110961914062	0.4447684326171875	0		-0.1627844696044922	-3.40917236328125	0		2.168064453125	-1.0282471923828125	0		3.64436181640625	-0.14052903747558593	0		4.97705859375	-0.08036430358886719	0		5.96303173828125	0.41002755737304686	0		-0.3289097900390625	5.9210556640625	0		
0.04778118515014648	-0.0032814829349517823	0		0.6563836059570313	-2.6198056640625	0		-1.0035794067382813	0.4447653503417969	0		-0.16699005126953126	-3.41421728515625	0		2.165960205078125	-1.0465452880859376	0		3.6243369140625	-0.15978584289550782	0		4.96417529296875	-0.08682837677001953	0		5.9523994140625	0.39351425170898435	0		-0.32912033081054687	5.92199560546875	0		
-0.029029850006103516	-0.0015634989738464355	0		0.6293111572265625	-2.618677001953125	0		-1.0033610229492187	0.4447724609375	0		-0.17018472290039063	-3.417260986328125	0		2.13090625	-1.05848046875	0		3.60251806640625	-0.1580034942626953	0		4.9743408203125	-0.08751699829101563	0		5.9574248046875	0.37144430541992185	0		-0.3132449951171875	5.9327763671875	0		
-0.03381590270996094	0.0034128921031951905	0		0.6141781005859375	-2.622656494140625	0		-1.0581654052734375	0.444376708984375	0		-0.15340695190429687	-3.42250537109375	0		2.12278369140625	-1.07567822265625	0		3.599513916015625	-0.172396240234375	0		4.958568359375	-0.08090391540527343	0		5.9582275390625	0.36510256958007814	0		-0.3115253601074219	5.93171630859375	0		
-0.013658040046691895	0.004134950160980225	0		0.6759310913085937	-2.6374453125	0		-0.977938232421875	0.4475463562011719	0		-0.14951939392089844	-3.417600341796875	0		2.12368212890625	-1.089948486328125	0		3.6117744140625	-0.1609219970703125	0		4.958708984375	-0.0814244155883789	0		5.95833056640625	0.3640377197265625	0		-0.3297890319824219	5.9358837890625	0		
0.043458621978759764	0.0014666579961776732	0		0.6270221557617187	-2.621023193359375	0		-0.982801513671875	0.44363421630859373	0		-0.15270440673828126	-3.42060546875	0		2.128523193359375	-1.109235107421875	0		3.590794677734375	-0.17105488586425782	0		4.949017578125	-0.06579412078857422	0		5.95479443359375	0.3475826416015625	0		-0.29705206298828124	5.943513671875	0		
-0.033383331298828124	0.003269392013549805	0		0.658780517578125	-2.63745751953125	0		-0.9826240234375	0.4436761169433594	0		-0.12189983367919922	-3.4269677734375	0		2.10247021484375	-1.119154296875	0		3.590923583984375	-0.17137451171875	0		4.9379365234375	-0.086099609375	0		5.94707080078125	0.3520995178222656	0		-0.296428955078125	5.9445009765625	0		
-0.028287609100341796	-0.001804273009300232	0		0.6146806640625	-2.643041015625	0		-0.9773980102539063	0.4476692810058594	0		-0.11010311889648437	-3.43711181640625	0		2.130330810546875	-1.1386318359375	0		3.564931640625	-0.18336387634277343	0		4.933169921875	-0.07841696166992188	0		5.9442294921875	0.330645751953125	0		-0.27691226196289065	5.9392919921875	0		
0.043920520782470704	0.0013926450014114379	0		0.668648193359375	-2.6466845703125	0		-0.9672134399414063	0.4466117858886719	0		-0.13804713439941407	-3.42780322265625	0		2.116318359375	-1.148616455078125	0		3.5791875	-0.17474871826171876	0		4.92739990234375	-0.07266533660888672	0		5.93721533203125	0.3301812744140625	0		-0.3142726135253906	5.9487216796875	0		
0.051193592071533206	0.008316913604736327	0		0.6447609252929688	-2.6414482421875	0		-0.9629500122070312	0.4506230773925781	0		-0.07310356140136719	-3.434513671875	0		2.135285400390625	-1.163933837890625	0		3.565274658203125	-0.18377685546875	0		4.92268115234375	-0.06486589813232421	0		5.93371533203125	0.31417120361328127	0		-0.2806866760253906	5.95537548828125	0		
-0.02769612693786621	-0.0017868789434432983	0		0.6647614135742187	-2.65168310546875	0		-0.9627026977539063	0.45068051147460936	0		-0.10701124572753906	-3.433115234375	0		2.11036376953125	-1.17273095703125	0		3.565494384765625	-0.1839155731201172	0		4.91290673828125	-0.06495177459716797	0		5.93387646484375	0.31375177001953125	0		-0.294333984375	5.943560546875	0		
-0.02743606948852539	-0.0017617690563201905	0		0.636945068359375	-2.650367919921875	0		-0.9624273681640625	0.45073715209960935	0		-0.07591362762451172	-3.437434326171875	0		2.123482666015625	-1.1819229736328125	0		3.565748291015625	-0.18401161193847657	0		4.91009765625	-0.07105928039550781	0		5.9375458984375	0.29605014038085936	0		-0.3089844970703125	5.93376318359375	0		
0.046806529998779295	-0.00656125020980835	0		0.6631376342773437	-2.65364501953125	0		-1.031164794921875	0.4475652160644531	0		-0.14063339233398436	-3.43067333984375	0		2.084737548828125	-1.182506591796875	0		3.52601611328125	-0.18561900329589845	0		4.90039990234375	-0.07003614807128906	0		5.92280859375	0.30317913818359377	0		-0.3095370788574219	5.93481201171875	0		
-0.02681890296936035	-0.0016965670585632323	0		0.6333123168945313	-2.663282958984375	0		-1.0166990356445313	0.4594566650390625	0		-0.0476130256652832	-3.453680908203125	0		2.097886474609375	-1.1966490478515626	0		3.54022509765625	-0.19579464721679687	0		4.89479150390625	-0.06400872039794922	0		5.92721484375	0.2804782104492187	0		-0.3270879821777344	5.938052734375	0		
0.05356700897216797	4.4078499078750613E-4	0		0.6797406616210937	-2.655767822265625	0		-0.9362991333007813	0.4625998840332031	0		-0.1329337615966797	-3.4226787109375	0		2.09519189453125	-1.2005908203125	0		3.542783447265625	-0.17780264282226563	0		4.8992158203125	-0.05804656982421875	0		5.92746875	0.280480224609375	0		-0.32570639038085936	5.93708056640625	0		
-0.031019170761108397	0.0034354379177093507	0		0.6641578369140625	-2.653546875	0		-0.9409591674804687	0.4586927490234375	0		-0.07166529846191406	-3.434324951171875	0		2.108490478515625	-1.208691162109375	0		3.522058837890625	-0.18751646423339843	0		4.890625	-0.05589207458496094	0		5.91628515625	0.27050982666015627	0		-0.3073726196289063	5.93391650390625	0		
-0.025666217803955078	-0.0015799640417099	0		0.6635762939453125	-2.65548681640625	0		-0.9405551147460938	0.4587224426269531	0		-0.059317073822021484	-3.443419189453125	0		2.08281494140625	-1.2173330078125	0		3.5035615234375	-0.17922119140625	0		4.87712548828125	-0.04763677978515625	0		5.916578125	0.27070175170898436	0		-0.27296804809570313	5.93957177734375	0		
